PathFileType	4	(X/Y/Z)	/home/alexbeat/data/kuopio-gait-dataset/01/mocap/calib_static_markers.trc
DataRate	CameraRate	NumFrames	NumMarkers	Units	OrigDataRate	OrigDataStartFrame	OrigNumFrames
100.000000	100.000000	4	70	mm	100.000000	52	211
Frame#	Time	Pelvis1			Pelvis2			Pelvis3			Pelvis4			Torso1			Torso2			Torso3			Torso4			RFemur1			RFemur2			RFemur3			RFemur4			LFemur1			LFemur2			LFemur3			LFemur4			RTibia1			RTibia2			RTibia3			RTibia4			LTibia1			LTibia2			LTibia3			LTibia4			LFoot1			LFoot2			LFoot3			RFoot1			RFoot2			RFoot3			*30			*31			*32			*33			*34			*35			*36			*37			*38			Pelvis_RFemur_score			Pelvis_LFemur_score			RFemur_RTibia_score			RFemur_RTibia_sara			LFemur_LTibia_score			LFemur_LTibia_sara			RKnee			LKnee			RTibia_RFoot_score			LTibia_LFoot_score			USERMO0			USERMO1			USERMO2			USERMO3			USERMO4			USERMO5			USERMO6			USERMO7			USERMO8			USERMO9			USERMO10			USERMO11			USERMO12			USERMO13			USERMO14			USERMO15			USERMO16			USERMO17			USERMO18			USERMO19			USERMO20			
		X1	Y1	Z1	X2	Y2	Z2	X3	Y3	Z3	X4	Y4	Z4	X5	Y5	Z5	X6	Y6	Z6	X7	Y7	Z7	X8	Y8	Z8	X9	Y9	Z9	X10	Y10	Z10	X11	Y11	Z11	X12	Y12	Z12	X13	Y13	Z13	X14	Y14	Z14	X15	Y15	Z15	X16	Y16	Z16	X17	Y17	Z17	X18	Y18	Z18	X19	Y19	Z19	X20	Y20	Z20	X21	Y21	Z21	X22	Y22	Z22	X23	Y23	Z23	X24	Y24	Z24	X25	Y25	Z25	X26	Y26	Z26	X27	Y27	Z27	X28	Y28	Z28	X29	Y29	Z29	X30	Y30	Z30	X31	Y31	Z31	X32	Y32	Z32	X33	Y33	Z33	X34	Y34	Z34	X35	Y35	Z35	X36	Y36	Z36	X37	Y37	Z37	X38	Y38	Z38	X39	Y39	Z39	X40	Y40	Z40	X41	Y41	Z41	X42	Y42	Z42	X43	Y43	Z43	X44	Y44	Z44	X45	Y45	Z45	X46	Y46	Z46	X47	Y47	Z47	X48	Y48	Z48	X49	Y49	Z49	X50	Y50	Z50	X51	Y51	Z51	X52	Y52	Z52	X53	Y53	Z53	X54	Y54	Z54	X55	Y55	Z55	X56	Y56	Z56	X57	Y57	Z57	X58	Y58	Z58	X59	Y59	Z59	X60	Y60	Z60	X61	Y61	Z61	X62	Y62	Z62	X63	Y63	Z63	X64	Y64	Z64	X65	Y65	Z65	X66	Y66	Z66	X67	Y67	Z67	X68	Y68	Z68	X69	Y69	Z69	X70	Y70	Z70	

53	0.52	344.0547180175782	1027.430786132812	-306.5682983398438	346.7246398925782	1030.220703125	-225.8899078369141	314.9015197753907	916.1024169921875	-227.8031768798828	313.4678955078126	916.84228515625	-297.6097717285156	500.5631408691407	1421.978881835938	-262.2704162597656	446.316864013672	1439.95263671875	-91.36058044433591	439.7829895019532	1464.7265625	-435.7553405761719	368.3373107910157	1491.165161132812	-253.8086853027344	397.8554382324219	647.382568359375	-91.12919616699216	393.9715576171876	545.154052734375	-101.4054336547852	422.3005371093751	592.3832397460938	-89.76080322265622	459.4994201660157	591.5614013671875	-85.13212585449216	421.3298645019532	668.8508911132812	-434.380859375	482.5910034179689	632.3041381835938	-433.6096496582031	422.1433105468751	563.1781616210938	-423.3958129882812	440.6211242675782	634.1685180664062	-434.5365295410156	377.1296691894531	363.6155395507812	-93.07707214355466	396.2457275390625	419.1795654296875	-97.14093780517575	391.8888549804688	317.6542358398438	-91.66745758056638	338.7200927734375	366.4833374023438	-109.6012649536133	363.216064453125	372.5252990722656	-426.4273986816406	404.8712463378906	350.4126586914062	-432.1291809082031	412.6020812988281	285.2710571289062	-424.0276489257812	429.8365478515625	394.6585998535156	-424.7376708984375	320.4113159179688	28.13594627380369	-335.287841796875	555.2955932617188	23.28206443786618	-377.7721557617188	505.9233703613281	23.17986297607419	-421.9531555175781	331.457275390625	26.46237754821775	-179.6100006103516	561.9850463867188	22.28283882141109	-118.2095260620117	505.9566040039062	21.02493476867673	-76.26023864746091	-1841.735717773438	614.9726562500001	-1498.118286132812	-1909.35400390625	704.5462036132814	-1584.31298828125	nan	nan	nan	-1821.20556640625	658.3278808593751	-1628.111938476562	nan	nan	nan	nan	nan	nan	nan	nan	nan	nan	nan	nan	nan	nan	nan	452.7725219726562	904.0001831054688	-139.9944763183594	456.8960876464844	892.2459106445312	-375.658447265625	417.1073608398438	461.2199096679688	-145.3717803955078	431.8385925292969	466.8277893066406	-244.1216888427734	432.6328125	458.484619140625	-364.3003845214844	436.6026306152344	461.3853454589844	-264.4213256835938	417.1069946289062	461.2200012207031	-145.3719940185547	432.6329956054688	458.4849853515625	-364.2999877929688	357.5084533691406	8.523084640502908	-222.1464691162109	337.4746398925781	18.59202384948728	-373.1917724609375	-1.482497215270996	-0.7359246015548705	0.8912051320075988	0.4420314729213716	0.6214454770088196	-0.4305469393730164	-0.1000000014901161	0.1000000014901161	-0.1000000014901161	-0.02930197492241867	-1.385842680931091	0.0005894047208130341	0.4605434536933899	0.02486595883965489	-0.3783377110958098	-0.1000000014901161	0.1000000014901161	-0.1000000014901161	-1.399050116539001	-0.6344895362854003	1.074671149253845	0.3935566246509552	0.3360575735569	-0.4275576174259186	-0.1000000014901161	0.1000000014901161	-0.1000000014901161	-2.506247997283936	-1.90037727355957	0.07630155235528931	0.3352062702178956	0.9913585186004639	-0.2533922791481018	-0.1000000014901161	0.1000000014901161	-0.1000000014901161	0.2037057876586914	-2.237673759460449	-2.463037729263306	0.4047414660453796	0.5949565768241882	-0.0941822752356529	-0.1000000014901161	0.1000000014901161	-0.1000000014901161	-2.469509363174438	-0.02837882004678234	1.88241720199585	0.4664663374423981	0.02325671911239621	-0.1246932595968246	-0.1000000014901161	0.1000000014901161	-0.1000000014901161	0.3362321555614474	2.31983470916748	-2.464279413223267	0.3883714079856873	0.3668135404586792	-0.09398991614580152	-0.1000000014901161	0.1000000014901161	-0.1000000014901161	
54	0.53	344.0993347167969	1027.441162109375	-306.5590209960938	346.7402648925782	1030.23291015625	-225.8986206054688	314.9255981445312	916.1134033203125	-227.7828521728516	313.5566711425782	916.8309326171875	-297.5320434570312	500.8636474609376	1422.129760742188	-262.3569335937499	446.3522949218751	1439.96142578125	-91.35663604736325	439.8276977539063	1464.743286132812	-435.751220703125	368.3638916015626	1491.162231445312	-253.7966766357422	397.8645019531251	647.3726806640625	-91.10820770263669	393.9834289550782	545.1657104492188	-101.3850250244141	422.3326721191407	592.359619140625	-89.73630523681638	459.5093078613282	591.5426025390625	-85.11259460449216	421.3717956542969	668.8530883789062	-434.3538513183594	482.6166992187501	632.3167114257812	-433.6231384277343	422.1825561523439	563.19775390625	-423.3975524902344	440.6243896484376	634.1663818359375	-434.5028076171875	377.1123657226562	363.5602111816406	-93.08786773681638	396.2757263183594	419.181884765625	-97.1040344238281	391.9353942871094	317.6353149414062	-91.59056854248044	338.7445068359375	366.4813537597656	-109.5687484741211	363.2318420410156	372.5227355957031	-426.4239196777344	404.8917846679688	350.4405822753906	-432.1185913085938	412.622802734375	285.2904968261719	-424.0114135742188	429.8462829589844	394.6838073730469	-424.7257385253906	320.4108581542969	28.14562225341795	-335.2684020996094	555.3004150390625	23.28278160095211	-377.7599487304688	505.9495849609375	23.19314575195309	-421.9239501953124	331.4647521972656	26.47626304626463	-179.5994720458984	561.9691772460938	22.26610755920407	-118.1960678100586	505.9666748046875	21.01206588745114	-76.242561340332	-1841.720825195312	615.0389404296876	-1498.137329101562	-1909.36181640625	704.5356445312501	-1584.355834960938	-1802.579956054688	662.8498535156251	-1627.125366210938	-1821.23095703125	658.3555297851564	-1628.10107421875	nan	nan	nan	nan	nan	nan	nan	nan	nan	nan	nan	nan	nan	nan	nan	452.7939758300782	904.0407104492188	-139.9172821044922	456.9864501953126	892.2354125976562	-375.5564880371094	417.1266784667969	461.2008056640625	-145.3530426025391	431.8771972656251	466.7972412109375	-244.1007232666016	432.657470703125	458.4926452636719	-364.3109436035156	436.6461486816406	461.3824157714844	-264.4323120117188	417.1270141601562	461.2009887695312	-145.3529968261719	432.6570129394531	458.4930114746094	-364.3110046386719	357.5511169433594	8.502306938171365	-222.0775604248047	337.513916015625	18.60329246520994	-373.1754150390625	-1.481945633888245	-0.7356228828430175	0.8914394378662108	0.4420595169067383	0.6214532256126404	-0.4305366575717926	-0.1000000014901161	0.1000000014901161	-0.1000000014901161	-0.02918447181582459	-1.385871648788452	0.0003882540040649456	0.4605536460876465	0.02487385086715218	-0.3783174753189086	-0.1000000014901161	0.1000000014901161	-0.1000000014901161	-1.399162769317627	-0.6347206830978392	1.074734926223755	0.3935760855674744	0.3360733687877655	-0.4275477230548859	-0.1000000014901161	0.1000000014901161	-0.1000000014901161	-2.506551504135132	-1.901081800460815	0.07610139995813354	0.3352391421794891	0.9913702607154846	-0.2533731460571289	-0.1000000014901161	0.1000000014901161	-0.1000000014901161	0.2035981267690659	-2.237679004669189	-2.463139533996582	0.4047573208808899	0.5949477553367615	-0.09416088461875913	-0.1000000014901161	0.1000000014901161	-0.1000000014901161	-2.469437122344971	-0.02828493341803536	1.882321357727051	0.466466873884201	0.02325147949159142	-0.124679371714592	-0.1000000014901161	0.1000000014901161	-0.1000000014901161	0.3366762697696689	2.319301843643188	-2.464268207550049	0.388390839099884	0.3667967915534973	-0.09395127743482587	-0.1000000014901161	0.1000000014901161	-0.1000000014901161	
55	0.54	344.1046752929689	1027.452758789062	-306.5293884277344	346.7977294921876	1030.248901367188	-225.8664398193359	314.9613647460939	916.1286010742188	-227.7780914306641	313.3758544921876	916.9453735351562	-297.5942993164062	500.6006774902345	1421.943969726562	-262.2841796874999	446.3987426757813	1439.97412109375	-91.34505462646482	439.860076904297	1464.729858398438	-435.7357788085938	368.3921203613282	1491.167114257812	-253.79248046875	397.8795471191407	647.3889770507812	-91.08444976806638	394.0148010253907	545.175537109375	-101.3663940429688	422.3740844726562	592.3778076171875	-89.74691009521482	459.5260925292969	591.536376953125	-85.13232421874997	421.3785095214844	668.8746948242188	-434.345947265625	482.6445312500001	632.3430786132812	-433.6156921386718	422.2002563476562	563.2171630859375	-423.3775939941406	440.6571044921876	634.196533203125	-434.52197265625	377.1163330078125	363.5615844726562	-93.06757354736325	396.286865234375	419.1807556152344	-97.10197448730466	391.9460754394531	317.6630859375	-91.57025909423825	338.7460632324219	366.482177734375	-109.5659255981445	363.2348022460938	372.5418395996094	-426.4228515625	404.8891906738281	350.4600524902344	-432.1327209472656	412.6202697753906	285.308349609375	-424.0106506347656	429.8656616210938	394.7062377929688	-424.7069702148438	320.4261169433594	28.15688133239744	-335.2615966796875	555.2978515625	23.28875541687009	-377.7602539062499	505.9569702148438	23.19781684875485	-421.9280395507811	331.481689453125	26.48842811584471	-179.6056823730469	561.9788208007812	22.28110885620113	-118.2012710571289	505.9769592285156	21.00504684448239	-76.23471069335935	-1841.720947265625	615.0875854492189	-1498.171142578125	-1909.340942382812	704.5333251953126	-1584.334716796875	nan	nan	nan	-1821.219604492188	658.3125000000001	-1628.109985351562	913.0484008789064	1654.525512695312	339.0601501464844	nan	nan	nan	nan	nan	nan	nan	nan	nan	nan	nan	nan	452.8379516601562	903.9534301757812	-140.0376892089844	456.8480224609376	892.2559204101562	-375.7098083496094	417.1324157714844	461.2073364257812	-145.3597106933594	431.8591918945312	466.7990112304688	-244.1111755371094	432.6762390136719	458.5137329101562	-364.2853393554688	436.6575927734375	461.4045715332031	-264.4064636230469	417.1319885253906	461.2070007324219	-145.3600006103516	432.6759948730469	458.5140075683594	-364.2850036621094	357.5773010253906	8.508996963500955	-222.041015625	337.4972229003906	18.61854362487791	-373.1983642578125	-1.482058644294739	-0.7355996966361998	0.8915774226188659	0.4420809745788575	0.6214778423309326	-0.4305321276187897	-0.1000000014901161	0.1000000014901161	-0.1000000014901161	-0.02922969125211247	-1.385826826095581	0.0004032029828522336	0.4605603218078613	0.02488115243613717	-0.3783166408538817	-0.1000000014901161	0.1000000014901161	-0.1000000014901161	-1.399179697036743	-0.6348206996917723	1.074482679367065	0.3935789465904236	0.3360941708087921	-0.4275495111942291	-0.1000000014901161	0.1000000014901161	-0.1000000014901161	-2.506133794784546	-1.898845314979553	0.07726567238569244	0.3352552056312562	0.9913948178291321	-0.2533650100231171	-0.1000000014901161	0.1000000014901161	-0.1000000014901161	0.2028716802597046	-2.237307548522949	-2.462945699691772	0.404781997203827	0.5949568152427673	-0.094149574637413	-0.1000000014901161	0.1000000014901161	-0.1000000014901161	-2.469287633895874	-0.02876111492514595	1.882140040397644	0.4664791822433472	0.0232581943273544	-0.1246805638074875	-0.1000000014901161	0.1000000014901161	-0.1000000014901161	0.3368203639984134	2.318964004516602	-2.464385032653809	0.3883971869945526	0.3668052852153778	-0.09393838047981259	-0.1000000014901161	0.1000000014901161	-0.1000000014901161	
56	0.55	344.1345214843751	1027.452880859375	-306.5344543457031	346.8150024414062	1030.245727539062	-225.8673095703125	314.9759826660157	916.1295166015625	-227.7727508544922	313.3961486816407	916.9434204101562	-297.5639953613281	500.885711669922	1422.098999023438	-262.3635253906249	446.4226074218751	1439.961181640625	-91.35903167724607	439.904510498047	1464.704711914062	-435.7504577636719	368.4091186523439	1491.157836914062	-253.7981109619141	397.8953552246094	647.3873291015625	-91.08329010009763	394.0124816894532	545.1781616210938	-101.3673095703125	422.3577880859376	592.367431640625	-89.72839355468747	459.5433959960939	591.545166015625	-85.11573791503903	421.4243164062501	668.8645629882812	-434.3362426757812	482.6623229980469	632.3458862304688	-433.6183166503906	422.1822204589844	563.1976928710938	-423.35791015625	440.6850280761719	634.202392578125	-434.5177307128906	377.1347961425781	363.5895080566406	-93.05598449707028	396.2900390625	419.1835327148438	-97.09957122802732	391.9800415039062	317.6874694824219	-91.4817199707031	338.7437744140625	366.4836120605469	-109.5691070556641	363.2250061035156	372.5484313964844	-426.4196166992188	404.9019470214844	350.4632873535156	-432.09912109375	412.6168823242188	285.2968444824219	-424.0072631835938	429.865966796875	394.6884155273438	-424.70703125	320.4153442382812	28.15253829956053	-335.269287109375	555.306640625	23.29100990295407	-377.7822265624999	505.9536437988281	23.19620704650876	-421.9329528808593	331.4505310058594	26.48424148559568	-179.5997009277344	561.9775390625	22.27482604980466	-118.2020416259766	505.966064453125	21.00637054443356	-76.24735260009763	-1841.708374023438	615.0947265625001	-1498.27587890625	-1909.331176757812	704.5056762695314	-1584.330078125	-1802.684204101562	662.8223876953126	-1627.271484375	-1821.206298828125	658.2624511718751	-1628.120971679688	913.1084594726564	1654.532104492188	339.1080017089844	673.3855590820311	994.5353393554688	3557.312744140625	669.4785156249999	971.5098266601562	3552.6650390625	nan	nan	nan	nan	nan	nan	452.8637084960939	903.9567260742188	-140.0166320800781	456.9228515625001	892.2408447265625	-375.7025451660156	417.146484375	461.1980895996094	-145.3686676025391	431.9188232421876	466.7498474121094	-244.1155853271484	432.6665344238281	458.5116271972656	-364.2696838378906	436.6566772460938	461.4064331054688	-264.3912658691406	417.14599609375	461.197998046875	-145.3690032958984	432.6669921875	458.5119934082031	-364.2699890136719	357.6562805175781	8.456365585327127	-221.8809204101562	337.47998046875	18.61687660217283	-373.1963806152344	-1.482107281684875	-0.7351525425910949	0.8914752006530761	0.4420984089374543	0.6214724779129028	-0.4305242300033569	-0.1000000014901161	0.1000000014901161	-0.1000000014901161	-0.02924712002277382	-1.38580048084259	0.0004747273924294841	0.4605585634708405	0.02487991936504838	-0.3783281743526458	-0.1000000014901161	0.1000000014901161	-0.1000000014901161	-1.399222254753113	-0.6347613334655761	1.074396014213562	0.393577516078949	0.3360901772975922	-0.4275395274162292	-0.1000000014901161	0.1000000014901161	-0.1000000014901161	-2.50631308555603	-1.898873567581177	0.07730150222778305	0.3352757692337037	0.9913950562477112	-0.2533597946166992	-0.1000000014901161	0.1000000014901161	-0.1000000014901161	0.2030684649944305	-2.237463712692261	-2.463094711303711	0.4047862887382507	0.5949578881263733	-0.09414392709732053	-0.1000000014901161	0.1000000014901161	-0.1000000014901161	-2.4692702293396	-0.02860668860375866	1.882276892662048	0.4664647579193115	0.02325514703989026	-0.1246830374002457	-0.1000000014901161	0.1000000014901161	-0.1000000014901161	0.3375010490417483	2.317497491836548	-2.464666604995728	0.3884077966213226	0.3668256402015686	-0.09390504658222196	-0.1000000014901161	0.1000000014901161	-0.1000000014901161	
